# AST/ASF file generated using VICON BodyLanguage
# -----------------------------------------------
:version 1.10
:name VICON
:units
  mass 1.0
  length 0.45
  angle deg
:documentation
   .ast/.asf automatically generated from VICON data using
   VICON BodyBuilder and BodyLanguage model FoxedUp or BRILLIANT.MOD
:root
   order TX TY TZ RX RY RZ
   axis XYZ
   position 0 0 0  
   orientation 0 -0 0 
:bonedata
  begin
     id 1 
     name lhipjoint
     direction 0.432694 -0.693742 0.575759 
     length 2.19277 
     axis 0 -0 0  XYZ
  end
  begin
     id 2 
     name lfemur
     direction 0.34202 -0.939693 0  
     length 6.69022  
     axis 0 -0 20  XYZ
    dof rx ry rz
    limits (-160.0 20.0)
           (-70.0 70.0)
           (-60.0 70.0)
  end
  begin
     id 3 
     name ltibia
     direction 0.34202 -0.939693 0   
     length 6.50337   
     axis 0 -0 20   XYZ
    dof rx
    limits (-10.0 170.0)
  end
  begin
     id 4 
     name lfoot
     direction 0.158999 -0.435969 0.885805   
     length 2.70564   
     axis -90 -1.13533e-015 20   XYZ
    dof rx rz
    limits (-45.0 90.0)
           (-70.0 20.0)
  end
  begin
     id 5 
     name ltoes
     direction -0.00592919 0.00964381 0.999936   
     length 1.29929   
     axis -90 -1.13533e-015 20   XYZ
    dof rx
    limits (-90.0 20.0)
  end
  begin
     id 6 
     name rhipjoint
     direction -0.414359 -0.700339 0.581234   
     length 2.17212  
     axis 0 -0 0  XYZ 
  end
  begin
     id 7 
     name rfemur
     direction -0.34202 -0.939693 0   
     length 7.17659   
     axis 0 -0 -20   XYZ
    dof rx ry rz
    limits (-160.0 20.0)
           (-70.0 70.0)
           (-70.0 60.0)
  end
  begin
     id 8 
     name rtibia
     direction -0.34202 -0.939693 0   
     length 6.36669   
     axis 0 -0 -20   XYZ
    dof rx
    limits (-10.0 170.0)
 end
 begin
     id 9 
     name rfoot
     direction -0.137064 -0.37658 0.916188   
     length 2.22351  
     axis -90 1.13533e-015 -20   XYZ
    dof rx rz
    limits (-45.0 90.0)
           (-20.0 70.0)
  end
  begin
     id 10 
     name rtoes
     direction -0.000784077 -0.00289101 0.999996   
     length 1.09522   
     axis -90 1.13533e-015 -20   XYZ
    dof rx
    limits (-90.0 20.0)
  end
  begin
     id 11 
     name lowerback
     direction -0.0176242 0.984912 -0.172157   
     length 1.65301   
     axis 0 -0 0   XYZ
    dof rx ry rz
    limits (-20.0 45.0)
           (-30.0 30.0)
           (-30.0 30.0)
  end
  begin
     id 12 
     name upperback
     direction -0.00218128 0.998776 -0.0494072   
     length 1.67776   
     axis 0 -0 0   XYZ
    dof rx ry rz
    limits (-20.0 45.0)
           (-30.0 30.0)
           (-30.0 30.0)
  end
  begin
     id 13 
     name thorax
     direction 0.00544186 0.999658 0.0255711   
     length 1.72293   
     axis 0 -0 0   XYZ
    dof rx ry rz
    limits (-20.0 45.0)
           (-30.0 30.0)
           (-30.0 30.0)
  end
  begin
     id 14 
     name lowerneck
     direction -0.105325 0.983841 0.144785   
     length 2.14226   
     axis 0 -0 0   XYZ
    dof rx ry rz
    limits (-20.0 45.0)
           (-30.0 30.0)
           (-30.0 30.0)
  end
  begin
     id 15 
     name upperneck
     direction 0.0547957 0.988053 -0.144041   
     length 2.17508   
     axis 0 -0 0   XYZ
    dof rx ry rz
    limits (-20.0 45.0)
           (-30.0 30.0)
           (-30.0 30.0)
  end
  begin
     id 16
     name head
     direction 0.0247488 0.997534 -0.0656813  
     length 2.20048  
     axis 0 -0 0   XYZ
    dof rx ry rz
    limits (-20.0 45.0)
           (-30.0 30.0)
           (-30.0 30.0)
  end
  begin
     id 17 
     name lclavicle
     direction 0.820559 0.567247 -0.0701026  
     length 4.09615  
     axis 0 -0 0   XYZ
    dof ry rz
    limits (-20.0 10.0)
           (0.0 20.0)
  end
  begin
     id 18 
     name lhumerus
     direction 0.999977 -0.0067566 -9.96392e-005   
     length 4.59333   
     axis -180 -30 -90   XYZ
    dof rx ry rz
    limits (-60.0 90.0)
           (-90.0 90.0)
           (-90.0 90.0)
  end
  begin
     id 19
     name lradius
     direction 1 -4.48982e-011 -2.53425e-027   
     length 2.81151   
     axis -180 -30 -90   XYZ
    dof rx
    limits (-10.0 170.0)
  end
  begin
     id 20
     name lwrist
     direction 1 -4.48939e-011 -7.39254e-028   
     length 1.40576   
     axis 2.56395e-016 90 90   XYZ
    dof ry
    limits (-180.0 0.0)
 end
  begin
     id 21 
     name lhand
     direction 1 -4.48939e-011 -1.47851e-027   
     length 0.895651   
     axis 9.43423e-016 90 90   XYZ
    dof rx rz
    limits (-90.0 90.0)
           (-45.0 45.0)
  end
  begin
     id 22 
     name lfingers
     direction 1 -4.48978e-011 -2.95702e-027   
     length 0.722097   
     axis 1.88685e-015 90 90   XYZ
    dof rx
    limits (0.0 90.0)
  end
  begin
     id 23
     name lthumb
     direction 0.707107 -6.34931e-011 0.707107   
     length 1.03679   
     axis -90 45 -9.86935e-015   XYZ
    dof rx rz
    limits (-45.0 45.0)
           (-45.0 45.0)
  end
  begin
     id 24 
     name rclavicle
     direction -0.831414 0.553102 -0.0531864   
     length 4.24872  
     axis 0 -0 0   XYZ 
    dof ry rz
    limits (-10.0 20.0)
           (-20.0 0.0)
  end
  begin
     id 25 
     name rhumerus
     direction -0.999916 -0.000939607 0.0129331  
     length 4.74834   
     axis -180 30 90   XYZ
    dof rx ry rz
    limits (-90.0 60.0)
           (-90.0 90.0)
           (-90.0 90.0)
  end
  begin
     id 26 
     name rradius
     direction -1 -4.48956e-011 -1.31752e-027   
     length 2.79907   
     axis -180 30 90   XYZ
    dof rx
    limits (-10.0 170.0)
  end
  begin
     id 27 
     name rwrist
     direction -1 -4.4897e-011 -7.39254e-028   
     length 1.39954   
     axis 2.56395e-016 -90 -90   XYZ
    dof ry
    limits (-180.0 0.0)
  end
  begin
     id 28
     name rhand
     direction -0.999997 -0.00250697 0.000800838   
     length 0.953304   
     axis 9.43423e-016 -90 -90   XYZ
    dof rx rz
    limits (-90.0 90.0)
           (-45.0 45.0)
  end
  begin
     id 29
     name rfingers
     direction -1 -4.48954e-011 -2.95702e-027   
     length 0.763342   
     axis 1.88685e-015 -90 -90   XYZ
    dof rx
    limits (0.0 90.0)
  end
  begin
     id 30
     name rthumb
     direction -0.709701 -0.00217037 0.7045   
     length 1.10115   
     axis -90 -45 9.86935e-015   XYZ
    dof rx rz
    limits (-45.0 45.0)
           (-45.0 45.0)
  end
:hierarchy
  begin
    root lhipjoint rhipjoint lowerback
    lhipjoint lfemur
    lfemur ltibia
    ltibia lfoot
    lfoot ltoes
    rhipjoint rfemur
    rfemur rtibia
    rtibia rfoot
    rfoot rtoes
    lowerback upperback
    upperback thorax
    thorax lowerneck lclavicle rclavicle
    lowerneck upperneck
    upperneck head
    lclavicle lhumerus
    lhumerus lradius
    lradius lwrist
    lwrist lhand lthumb
    lhand lfingers
    rclavicle rhumerus
    rhumerus rradius
    rradius rwrist
    rwrist rhand rthumb
    rhand rfingers
  end

#!OML:ASF G:\ViconDB\ViconDB\414\test\team2\shane.ASF
:FULLY-SPECIFIED
:DEGREES
16
root 4.97326 16.4437 -33.5227 -6.71678 -6.85107 -4.5424
lowerback 9.37038 2.45769 4.58135
upperback 5.23331 3.62891 2.54111
thorax 0.313362 1.87155 -0.25732
lowerneck -18.5113 -3.41951 -3.79778
upperneck 18.59 -5.19945 6.8937
head 9.19098 -1.94271 2.30251
rclavicle -2.05245e-014 3.61788e-014
rhumerus -15.3038 13.8614 -100.263
rradius 37.1236
rwrist 30.4463
rhand -32.2383 -16.5659
rfingers 7.12502
rthumb -5.4788 -46.4751
lclavicle -2.05245e-014 3.61788e-014
lhumerus -39.9265 -23.7258 95.87
lradius 24.0207
lwrist -13.7789
lhand -37.9378 7.43776
lfingers 7.12502
lthumb -10.9793 37.1307
rfemur 18.8099 -10.7782 19.6269
rtibia 16.7071
rfoot -25.7549 -0.719863
rtoes -12.7136
lfemur -20.4961 5.01064 -5.68272
ltibia 56.5446
lfoot -25.431 -7.54163
ltoes -10.3876
17
root 4.95727 16.4573 -33.4288 -6.66161 -6.74963 -4.37723
lowerback 9.65172 2.5486 4.75669
upperback 5.02987 3.78745 2.12513
thorax -0.00556698 1.95122 -0.817747
lowerneck -18.6035 -3.60806 -3.6985
upperneck 18.6927 -5.56174 7.18445
head 9.27285 -2.06826 2.33654
rclavicle -1.16786e-014 4.57205e-015
rhumerus -15.0979 13.9554 -100.871
rradius 37.7134
rwrist 30.5461
rhand -32.1904 -16.4617
rfingers 7.12502
rthumb -5.43257 -46.372
lclavicle -1.16786e-014 4.57205e-015
lhumerus -40.9044 -23.7603 95.3426
lradius 24.15
lwrist -13.6522
lhand -37.8279 7.48724
lfingers 7.12502
lthumb -10.8733 37.1857
rfemur 19.8654 -10.7392 19.4888
rtibia 15.029
rfoot -24.8434 -0.871449
rtoes -13.173
lfemur -20.8012 4.9489 -6.09049
ltibia 54.3625
lfoot -25.8699 -7.72404
ltoes -10.6907
18
root 4.94483 16.4811 -33.3237 -6.56758 -6.87631 -4.26774
lowerback 9.70613 2.71464 4.77305
upperback 4.83213 4.02031 2.01442
thorax -0.22075 2.06221 -0.971267
lowerneck -18.4143 -3.81919 -4.14129
upperneck 18.734 -5.79235 7.42688
head 9.28826 -2.18451 2.46402
rclavicle -4.26393e-014 -2.3059e-014
rhumerus -15.0913 14.2236 -100.982
rradius 38.2069
rwrist 31.0072
rhand -32.1884 -16.1765
rfingers 7.12502
rthumb -5.43061 -46.0869
lclavicle -4.26393e-014 -2.3059e-014
lhumerus -41.845 -23.3374 95.2101
lradius 24.0518
lwrist -13.5599
lhand -37.5463 7.57613
lfingers 7.12502
lthumb -10.6017 37.2887
rfemur 20.8552 -10.75 19.3074
rtibia 13.4113
rfoot -23.9722 -0.651843
rtoes -13.3681
lfemur -20.9717 5.09216 -6.37832
ltibia 52.0755
lfoot -26.3599 -7.86306
ltoes -11.2757
19
root 4.92951 16.4983 -33.2165 -6.46274 -7.00499 -4.11897
lowerback 9.79739 2.92799 4.76412
upperback 4.65829 4.31243 1.75937
thorax -0.417416 2.20441 -1.26666
lowerneck -18.3737 -4.03839 -4.2897
upperneck 18.7504 -6.11538 7.67691
head 9.32185 -2.31863 2.53068
rclavicle 2.26118e-014 -7.95139e-016
rhumerus -14.8938 14.1829 -101.187
rradius 38.5595
rwrist 31.7839
rhand -32.6755 -15.8965
rfingers 7.12502
rthumb -5.90094 -45.7943
lclavicle 2.26118e-014 -7.95139e-016
lhumerus -42.7279 -23.1568 94.8449
lradius 24.2381
lwrist -13.3205
lhand -37.0582 7.91032
lfingers 7.12502
lthumb -10.1308 37.6464
rfemur 22.0339 -10.7499 19.0668
rtibia 11.4109
rfoot -22.8949 -0.457661
rtoes -14.1837
lfemur -21.1725 5.31181 -6.65795
ltibia 49.8019
lfoot -26.6366 -8.40435
ltoes -11.4288
20
root 4.91803 16.5019 -33.1102 -6.29259 -7.00345 -4.08047
lowerback 9.80957 3.07166 4.90915
upperback 4.44735 4.52162 1.49935
thorax -0.598478 2.30665 -1.64211
lowerneck -18.1803 -4.2639 -4.27077
upperneck 18.6769 -6.44864 7.73753
head 9.2856 -2.47184 2.50327
rclavicle 3.3781e-014 6.16232e-015
rhumerus -14.738 14.0396 -101.42
rradius 38.9825
rwrist 32.0949
rhand -32.4337 -15.0109
rfingers 7.12502
rthumb -5.66747 -44.9151
lclavicle 3.3781e-014 6.16232e-015
lhumerus -43.4572 -22.4981 94.1246
lradius 24.1815
lwrist -13.4886
lhand -37.0155 6.85711
lfingers 7.12502
lthumb -10.0896 36.5952
rfemur 23.3662 -10.4806 19.0959
rtibia 8.90649
rfoot -21.5119 -0.60287
rtoes -14.3283
lfemur -21.4012 5.39278 -6.87791
ltibia 47.5197
lfoot -27.3194 -8.5287
ltoes -12.2924
21
root 4.90189 16.5124 -33.0002 -6.11011 -7.0034 -4.19187
lowerback 9.87184 3.19745 5.05571
upperback 4.21871 4.71268 1.35876
thorax -0.833766 2.39589 -1.89859
lowerneck -18.0919 -4.50836 -4.7164
upperneck 18.7624 -6.79081 8.24332
head 9.35889 -2.60837 2.70618
rclavicle -4.0639e-014 1.48095e-014
rhumerus -14.5164 13.9655 -101.579
rradius 39.209
rwrist 32.6493
rhand -32.3722 -14.4267
rfingers 7.12502
rthumb -5.60814 -44.3325
lclavicle -4.0639e-014 1.48095e-014
lhumerus -44.3524 -21.9129 93.5494
lradius 24.6512
lwrist -13.5912
lhand -36.6016 6.66788
lfingers 7.12502
lthumb -9.69026 36.425
rfemur 25.096 -10.2484 19.3352
rtibia 5.55681
rfoot -19.8148 -0.744125
rtoes -14.5017
lfemur -21.733 5.59411 -6.81251
ltibia 45.33
lfoot -27.6681 -9.346
ltoes -11.8392
22
root 4.88917 16.5265 -32.8851 -5.8765 -6.90894 -4.16287
lowerback 9.78516 3.32552 5.21605
upperback 4.0334 4.89364 1.04168
thorax -0.924096 2.48572 -2.3315
lowerneck -18.0381 -4.77242 -4.70076
upperneck 18.7237 -7.21028 8.44955
head 9.37532 -2.78192 2.71582
rclavicle -1.48819e-014 -1.09401e-014
rhumerus -14.0867 13.5593 -101.832
rradius 39.333
rwrist 33.2207
rhand -32.4565 -13.9298
rfingers 7.12502
rthumb -5.68951 -43.8335
lclavicle -1.48819e-014 -1.09401e-014
lhumerus -45.157 -21.6083 92.725
lradius 25.0926
lwrist -14.8252
lhand -36.3457 6.5103
lfingers 7.12502
lthumb -9.44333 36.2787
rfemur 27.7836 -10.0952 19.4363
rtibia 3.18055e-015
rfoot -16.8851 -0.722595
rtoes -14.566
lfemur -22.1354 5.54021 -6.93954
ltibia 43.2454
lfoot -28.0689 -9.95009
ltoes -12.0694
23
root 4.86873 16.5297 -32.771 -5.69524 -7.03447 -4.15109
lowerback 9.77187 3.52555 5.10262
upperback 3.80074 5.15463 0.904075
thorax -1.13652 2.60639 -2.44372
lowerneck -17.67 -5.01599 -5.05136
upperneck 18.6033 -7.53532 8.79691
head 9.3199 -2.93357 2.85241
rclavicle 7.5327e-014 1.21756e-014
rhumerus -13.9178 13.6073 -101.93
rradius 39.491
rwrist 33.8505
rhand -32.1841 -13.8575
rfingers 7.12502
rthumb -5.42651 -43.768
lclavicle 7.5327e-014 1.21756e-014
lhumerus -46.2919 -21.4578 92.4612
lradius 25.6173
lwrist -15.3763
lhand -36.516 6.31553
lfingers 7.12502
lthumb -9.60767 36.0765
rfemur 27.9787 -9.71934 19.5521
rtibia -3.81667e-014
rfoot -16.8667 -1.01853
rtoes -14.8642
lfemur -22.4643 5.9368 -6.97684
ltibia 41.3556
lfoot -28.4815 -10.4889
ltoes -12.4471
24
root 4.85352 16.5292 -32.6535 -5.36797 -6.95371 -4.29352
lowerback 9.47319 3.66997 5.22304
upperback 3.64778 5.3435 0.814273
thorax -1.09695 2.70107 -2.60319
lowerneck -17.3834 -5.34786 -5.66348
upperneck 18.4327 -7.93754 9.27583
head 9.28792 -3.12521 3.06539
rclavicle -5.68027e-014 4.87022e-015
rhumerus -13.4392 13.4683 -101.792
rradius 39.5455
rwrist 33.7332
rhand -32.0078 -12.9676
rfingers 7.12502
rthumb -5.25622 -42.8824
lclavicle -5.68027e-014 4.87022e-015
lhumerus -47.2705 -21.6642 92.4595
lradius 26.31
lwrist -15.365
lhand -36.8881 6.15209
lfingers 7.12502
lthumb -9.96672 35.8961
rfemur 28.0865 -9.55459 19.8
rtibia -9.54166e-015
rfoot -17.1232 -1.25576
rtoes -14.5795
lfemur -23.0472 6.29958 -6.96167
ltibia 39.6783
lfoot -29.0411 -10.9777
ltoes -12.6911
